<svg width="48" height="42" viewBox="0 0 48 42" fill="none" xmlns="http://www.w3.org/2000/svg">
<path d="M25.7085 0.000572202C22.1212 0.018518 19.8041 0.504695 18.2065 1.25314C16.3806 2.10852 15.3557 3.36218 14.5366 4.98569C14.8838 6.8925 17.7809 9.37559 17.2005 11.397C14.9671 8.82701 12.6652 5.20359 8.62071 4.46316C6.3067 4.0423 3.6688 3.93463 2.72016 4.33235C1.599 4.8024 0.848629 5.67692 0.424044 6.77863C-0.000405222 7.88043 -0.0719602 9.16871 0.0594943 10.2662C0.389079 13.0113 3.41823 17.0981 6.4181 20.3863C8.66503 22.8491 10.8605 24.8879 11.8213 25.7567C12.8417 25.5551 13.8749 25.3843 14.9179 25.2447C14.7095 23.6032 15.1055 22.0862 15.0301 20.3304C15.6001 21.9874 16.0926 23.4801 16.9647 25.009C18.6428 24.8476 20.4096 24.754 22.2296 24.7522C23.5087 24.7502 24.787 24.7947 26.0589 24.8854L27.986 21.0993L27.6644 25.0258C29.9842 25.2667 32.3279 25.6779 34.6274 26.2991C36.2821 25.1369 36.9146 23.8029 38.0141 22.5473C38.068 24.0051 37.4033 25.4529 35.9742 26.6889C37.1806 27.0623 38.3708 27.4969 39.5341 27.9988C45.1601 21.8817 48.5719 15.8385 47.9207 9.89811C47.7179 8.04614 47.0957 6.41944 46.201 5.24267C45.3066 4.06571 44.1916 3.38031 43.0172 3.17443C42.0706 3.00846 39.6529 3.43205 37.6723 4.03948C34.0204 5.02422 31.0996 8.2041 30.0975 10.3734C30.0633 9.313 30.5045 6.32962 32.2587 4.84403C31.7193 3.69896 31.3217 2.43966 30.6209 1.53162C29.2058 0.0636102 27.8783 -0.00890174 25.7085 0.000572202ZM22.0716 26.4046C18.5501 26.4158 15.2428 26.7865 12.4809 27.3351L10.9053 36.3499C12.2822 35.8352 13.9301 35.5169 15.6916 35.3324C17.0411 35.1909 18.4738 35.129 19.9418 35.1347C20.1514 35.1356 20.3619 35.1378 20.573 35.1413C22.2612 35.1699 23.9868 35.2844 25.6786 35.4676C29.0619 35.8341 32.2993 36.4737 34.8212 37.3055C35.8165 37.6338 36.7313 37.9887 37.4933 38.3895L38.6222 29.5583C33.4095 27.2198 27.4886 26.3873 22.0716 26.4046ZM19.925 36.7768C18.5675 36.7713 17.2617 36.8272 16.0675 36.9524C13.8835 37.1813 12.1315 37.6466 11.0305 38.2922C17.8631 42.5358 27.751 43.0319 36.8299 40.3168C36.3168 39.8622 35.2867 39.2856 33.7466 38.7775C31.5285 38.0458 28.4708 37.4311 25.2904 37.0866C23.5015 36.8928 21.6705 36.7841 19.925 36.7768Z" fill="#F59E2F"/>
</svg>