<svg width="158" height="34" viewBox="0 0 158 34" fill="none" xmlns="http://www.w3.org/2000/svg">
<path d="M18.0625 6.09375C18.0625 4.02083 16.6927 2.98438 13.9531 2.98438C12.2344 2.98438 10.4948 3.50521 8.73438 4.54688C8.22396 4.84896 7.82292 5.13021 7.53125 5.39062C7.25 5.64062 6.97917 5.76562 6.71875 5.76562C6.45833 5.76562 6.20833 5.70312 5.96875 5.57812C5.72917 5.44271 5.51562 5.27604 5.32812 5.07812C4.64062 4.31771 4.71354 3.58333 5.54688 2.875C6.79688 1.80208 8.86979 1.10938 11.7656 0.796875C12.349 0.734375 13.0885 0.703125 13.9844 0.703125C14.8802 0.703125 15.8229 0.864583 16.8125 1.1875C17.8125 1.51042 18.651 1.94792 19.3281 2.5C20.6823 3.61458 21.3594 5.03646 21.3594 6.76562C21.3594 8.81771 20.4219 10.6875 18.5469 12.375C16.9219 13.8542 15 14.9115 12.7812 15.5469C13.3854 16.0469 13.9531 16.7656 14.4844 17.7031L15.7344 19.9375C16.8281 21.9688 17.8073 23.0729 18.6719 23.25C18.974 23.3021 19.2865 23.2917 19.6094 23.2188C19.9323 23.1458 20.1406 23.1146 20.2344 23.125C20.3385 23.125 20.4062 23.2083 20.4375 23.375C20.4792 23.5417 20.4375 23.75 20.3125 24C20.1875 24.25 19.9844 24.4844 19.7031 24.7031C19.0469 25.224 18.3281 25.4531 17.5469 25.3906C16.7656 25.3385 16.1302 25.1823 15.6406 24.9219C15.1615 24.651 14.7292 24.3125 14.3438 23.9062C13.9688 23.5 13.6302 23.0469 13.3281 22.5469C13.0365 22.0469 12.7656 21.5365 12.5156 21.0156L11.8125 19.4844C11.5938 18.9844 11.3906 18.5573 11.2031 18.2031C11.0156 17.8385 10.8542 17.5104 10.7188 17.2188C10.5833 16.9167 10.4323 16.6458 10.2656 16.4062C9.91146 15.8646 9.45833 15.5208 8.90625 15.375C6.71875 21 4.49479 24.2083 2.23438 25C2.04688 25.0729 1.85417 25.1094 1.65625 25.1094C1.46875 25.1094 1.29688 25.0729 1.14062 25C0.984375 24.9375 0.854167 24.8542 0.75 24.75C0.53125 24.5521 0.421875 24.3333 0.421875 24.0938C0.421875 23.8542 0.5 23.6771 0.65625 23.5625C2.21875 22.4271 3.95312 19.1146 5.85938 13.625L6.79688 10.9844C7.86979 7.94271 8.77604 6.06771 9.51562 5.35938C9.77604 5.16146 10.0469 5.0625 10.3281 5.0625C10.6094 5.0625 10.8542 5.10938 11.0625 5.20312C11.2708 5.28646 11.4531 5.39583 11.6094 5.53125C11.9635 5.84375 12.1406 6.16146 12.1406 6.48438C12.1406 6.80729 12.0677 7.09896 11.9219 7.35938C11.7865 7.60938 11.6302 7.96354 11.4531 8.42188C10.9427 9.75521 10.5469 10.8229 10.2656 11.625L9.46875 13.875C11.6875 13.5833 13.651 12.7135 15.3594 11.2656C17.1615 9.74479 18.0625 8.02083 18.0625 6.09375ZM22.2135 19.5312C22.2552 18.625 22.4062 17.7604 22.6667 16.9375C22.9271 16.1042 23.276 15.3021 23.7135 14.5312C24.151 13.75 24.6615 13.0156 25.2448 12.3281C25.8385 11.6302 26.4792 11.0208 27.1667 10.5C28.6562 9.38542 30.1615 8.82812 31.6823 8.82812C33.4635 8.82812 34.651 9.5625 35.2448 11.0312C35.4531 11.5312 35.5521 12.125 35.5417 12.8125C35.5312 13.4896 35.401 14.1198 35.151 14.7031C34.901 15.276 34.5521 15.8021 34.1042 16.2812C33.6667 16.75 33.1406 17.1719 32.526 17.5469C31.9219 17.9219 31.2604 18.2396 30.5417 18.5C29.0625 19.0208 27.4792 19.2917 25.7917 19.3125C25.75 19.4583 25.724 19.6771 25.7135 19.9688C25.7031 20.2604 25.7344 20.5885 25.8073 20.9531C25.8802 21.3073 26.0052 21.625 26.1823 21.9062C26.5573 22.5312 27.099 22.8438 27.8073 22.8438C29.0156 22.8438 30.1927 22.4896 31.3385 21.7812C31.7448 21.5417 32.0729 21.2969 32.3229 21.0469C32.5833 20.7865 32.8073 20.6562 32.9948 20.6562C33.1823 20.6562 33.3437 20.7708 33.4792 21C33.625 21.2188 33.6979 21.4688 33.6979 21.75C33.6979 22.3021 33.5417 22.7812 33.2292 23.1875C31.9167 24.5 29.9635 25.1562 27.3698 25.1562C25.8385 25.1562 24.6094 24.6979 23.6823 23.7812C22.6406 22.7396 22.151 21.3229 22.2135 19.5312ZM31.3385 10.9062C30.2448 10.9062 29.1927 11.6562 28.1823 13.1562C27.3281 14.4479 26.6406 15.9792 26.1198 17.75C27.8594 17.5729 29.3698 16.8854 30.651 15.6875C31.8281 14.5625 32.4167 13.4844 32.4167 12.4531C32.4167 11.4219 32.0573 10.9062 31.3385 10.9062ZM36.7552 19.6094C36.776 18.7031 36.9167 17.8021 37.1771 16.9062C37.4479 16 37.8021 15.1458 38.2396 14.3438C38.6875 13.5417 39.2135 12.8021 39.8177 12.125C40.4323 11.4479 41.099 10.8646 41.8177 10.375C43.3177 9.34375 44.8958 8.82812 46.5521 8.82812C48.2604 8.82812 49.4219 9.51042 50.0365 10.875C50.2552 11.3646 50.3542 11.9219 50.3333 12.5469C50.3229 13.1615 50.224 13.7292 50.0365 14.25C49.849 14.7604 49.6146 15.2188 49.3333 15.625C48.6979 16.5417 48.0573 17 47.4115 17C46.6927 17 46.1615 16.8021 45.8177 16.4062C45.5156 16.0625 45.4219 15.6615 45.5365 15.2031C45.5677 15.0677 45.6615 14.9479 45.8177 14.8438C45.974 14.7292 46.1719 14.5521 46.4115 14.3125C47.0885 13.6042 47.4427 12.776 47.474 11.8281C47.4948 11.1823 47.099 10.8594 46.2865 10.8594C45.4115 10.8594 44.4948 11.349 43.5365 12.3281C42.1406 13.7552 41.1562 15.5833 40.5833 17.8125C40.0833 19.75 40.1771 21.1667 40.8646 22.0625C41.2708 22.5833 41.8229 22.8438 42.5208 22.8438C43.6979 22.8438 44.8333 22.4271 45.9271 21.5938C46.2604 21.3333 46.5312 21.0677 46.7396 20.7969C46.9479 20.526 47.1406 20.3906 47.3177 20.3906C47.4948 20.3906 47.6406 20.4792 47.7552 20.6562C47.8802 20.8229 47.9427 21.0417 47.9427 21.3125C47.9427 21.9271 47.6667 22.5312 47.1146 23.125C45.6979 24.4792 43.9948 25.1562 42.0052 25.1562C40.3073 25.1562 38.9948 24.6719 38.0677 23.7031C37.151 22.7448 36.7135 21.3802 36.7552 19.6094ZM59.8281 5.17188C59.599 5.41146 59.3385 5.60938 59.0469 5.76562C58.7552 5.91146 58.4479 6.00521 58.125 6.04688C57.8021 6.07812 57.4948 6.02604 57.2031 5.89062C56.9219 5.75521 56.6771 5.5625 56.4688 5.3125C56.0208 4.79167 55.7969 4.26562 55.7969 3.73438C55.7969 3.20312 55.8802 2.80729 56.0469 2.54688C56.224 2.27604 56.4427 2.05729 56.7031 1.89062C57.2031 1.56771 57.6719 1.40625 58.1094 1.40625C58.5573 1.40625 58.901 1.4375 59.1406 1.5C59.3906 1.5625 59.6198 1.66667 59.8281 1.8125C60.3385 2.15625 60.5938 2.57812 60.5938 3.07812C60.5938 3.56771 60.5208 3.97917 60.375 4.3125C60.2396 4.63542 60.0573 4.92188 59.8281 5.17188ZM56.625 22.0781C56.8958 22.0781 57.0312 22.2552 57.0312 22.6094C57.0312 23.0781 56.8177 23.5625 56.3906 24.0625C55.7656 24.7917 54.9271 25.1562 53.875 25.1562C52.6667 25.1562 51.8385 24.6667 51.3906 23.6875C51.224 23.3438 51.1406 22.9271 51.1406 22.4375C51.1406 21.9479 51.224 21.4062 51.3906 20.8125C51.5677 20.2083 51.7812 19.5781 52.0312 18.9219C52.2917 18.2552 52.5729 17.5833 52.875 16.9062L53.7031 14.9375C54.3073 13.4688 54.6094 12.5 54.6094 12.0312C54.6094 11.5625 54.5573 11.2552 54.4531 11.1094C54.3594 10.9531 54.2552 10.8333 54.1406 10.75L53.8281 10.5312C53.724 10.4583 53.6719 10.3333 53.6719 10.1562C53.6719 9.96875 53.7396 9.79167 53.875 9.625C54.0208 9.45833 54.2083 9.3125 54.4375 9.1875C54.9062 8.94792 55.4531 8.82812 56.0781 8.82812C57.6094 8.82812 58.375 9.22917 58.375 10.0312C58.375 10.9688 58.1302 12.0417 57.6406 13.25C57.151 14.4479 56.7344 15.4167 56.3906 16.1562L55.4531 18.3125C54.7656 19.8958 54.4219 21.0365 54.4219 21.7344C54.4219 22.1927 54.651 22.4219 55.1094 22.4219C55.5573 22.4219 55.8958 22.3646 56.125 22.25C56.3542 22.1354 56.5208 22.0781 56.625 22.0781ZM63.0104 23.5156C62.9896 23.6719 62.7604 24.4948 62.3229 25.9844C61.8958 27.474 61.5365 28.6562 61.2448 29.5312C60.5885 31.4896 60.0469 32.7083 59.6198 33.1875C59.276 33.5625 58.8594 33.75 58.3698 33.75C57.776 33.75 57.3229 33.4583 57.0104 32.875C56.9167 32.7083 56.8698 32.5208 56.8698 32.3125C56.8698 32.1146 57.026 31.6771 57.3385 31C58.1615 29.2812 59.2604 25.8958 60.6354 20.8438C61.1875 18.8438 61.5521 17.4844 61.7292 16.7656L62.2292 14.8125C62.5521 13.5208 62.7396 12.6458 62.7917 12.1875C62.8542 11.7188 62.8281 11.3906 62.7135 11.2031C62.599 11.0052 62.4688 10.8594 62.3229 10.7656C62.1771 10.6615 62.0417 10.5729 61.9167 10.5C61.7917 10.4271 61.7396 10.2969 61.7604 10.1094C61.7813 9.91146 61.8646 9.73438 62.0104 9.57812C62.1667 9.41146 62.3594 9.27083 62.5885 9.15625C63.0573 8.9375 63.526 8.82812 63.9948 8.82812C64.474 8.82812 64.849 8.88542 65.1198 9C65.3906 9.11458 65.6146 9.27083 65.7917 9.46875C66.1667 9.875 66.3333 10.2708 66.2917 10.6562C66.1875 11.4583 66.0729 12.1458 65.9479 12.7188C67.7708 10.125 69.6615 8.82812 71.6198 8.82812C73.401 8.82812 74.5938 9.75 75.1979 11.5938C75.4063 12.2396 75.5104 13.026 75.5104 13.9531C75.5104 14.8802 75.3698 15.8125 75.0885 16.75C74.8073 17.6771 74.4271 18.5573 73.9479 19.3906C73.4688 20.224 72.9115 20.9948 72.276 21.7031C71.6406 22.401 70.9688 23.0104 70.2604 23.5312C68.7604 24.6146 67.3438 25.1562 66.0104 25.1562C64.6771 25.1562 63.6771 24.6094 63.0104 23.5156ZM65.4167 16.8594C65.0417 17.5885 64.7344 18.3177 64.4948 19.0469C64.2656 19.776 64.151 20.4427 64.151 21.0469C64.151 21.651 64.2813 22.151 64.5417 22.5469C64.8021 22.9323 65.1875 23.125 65.6979 23.125C66.2083 23.125 66.7135 22.9896 67.2135 22.7188C67.724 22.4375 68.2135 22.0625 68.6823 21.5938C69.1615 21.125 69.6042 20.5781 70.0104 19.9531C70.4271 19.3177 70.7865 18.6458 71.0885 17.9375C71.7448 16.3958 72.0729 14.9323 72.0729 13.5469C72.0729 12.7969 71.974 12.2135 71.776 11.7969C71.5781 11.3802 71.2708 11.1719 70.8542 11.1719C70.4479 11.1719 70.0208 11.3333 69.5729 11.6562C69.125 11.9688 68.6563 12.3906 68.1667 12.9219C67.6771 13.4427 67.1927 14.0469 66.7135 14.7344C66.2344 15.4115 65.8021 16.1198 65.4167 16.8594ZM77.6615 19.5312C77.7031 18.625 77.8542 17.7604 78.1146 16.9375C78.375 16.1042 78.724 15.3021 79.1615 14.5312C79.599 13.75 80.1094 13.0156 80.6927 12.3281C81.2865 11.6302 81.9271 11.0208 82.6146 10.5C84.1042 9.38542 85.6094 8.82812 87.1302 8.82812C88.9115 8.82812 90.099 9.5625 90.6927 11.0312C90.901 11.5312 91 12.125 90.9896 12.8125C90.9792 13.4896 90.849 14.1198 90.599 14.7031C90.349 15.276 90 15.8021 89.5521 16.2812C89.1146 16.75 88.5885 17.1719 87.974 17.5469C87.3698 17.9219 86.7083 18.2396 85.9896 18.5C84.5104 19.0208 82.9271 19.2917 81.2396 19.3125C81.1979 19.4583 81.1719 19.6771 81.1615 19.9688C81.151 20.2604 81.1823 20.5885 81.2552 20.9531C81.3281 21.3073 81.4531 21.625 81.6302 21.9062C82.0052 22.5312 82.5469 22.8438 83.2552 22.8438C84.4635 22.8438 85.6406 22.4896 86.7865 21.7812C87.1927 21.5417 87.5208 21.2969 87.7708 21.0469C88.0313 20.7865 88.2552 20.6562 88.4427 20.6562C88.6302 20.6562 88.7917 20.7708 88.9271 21C89.0729 21.2188 89.1458 21.4688 89.1458 21.75C89.1458 22.3021 88.9896 22.7812 88.6771 23.1875C87.3646 24.5 85.4115 25.1562 82.8177 25.1562C81.2865 25.1562 80.0573 24.6979 79.1302 23.7812C78.0885 22.7396 77.599 21.3229 77.6615 19.5312ZM86.7865 10.9062C85.6927 10.9062 84.6406 11.6562 83.6302 13.1562C82.776 14.4479 82.0885 15.9792 81.5677 17.75C83.3073 17.5729 84.8177 16.8854 86.099 15.6875C87.276 14.5625 87.8646 13.4844 87.8646 12.4531C87.8646 11.4219 87.5052 10.9062 86.7865 10.9062ZM91.5156 22.25C91.5156 21.9271 91.5833 21.6302 91.7188 21.3594C91.8646 21.0781 92.0417 20.8438 92.25 20.6562C92.6875 20.25 93.1458 20.0469 93.625 20.0469C94.0417 20.0469 94.25 20.2604 94.25 20.6875C94.25 21.7708 94.6094 22.526 95.3281 22.9531C95.5885 23.1094 95.8594 23.1875 96.1406 23.1875C96.4219 23.1875 96.6615 23.1562 96.8594 23.0938C97.0573 23.0312 97.2396 22.9323 97.4062 22.7969C97.7812 22.4948 97.9688 22.1354 97.9688 21.7188C97.9688 21.3021 97.875 20.9219 97.6875 20.5781C97.5 20.224 97.2656 19.8542 96.9844 19.4688L96.0938 18.2188C94.8438 16.5521 94.2188 15.0156 94.2188 13.6094C94.2188 12.4427 94.7135 11.3854 95.7031 10.4375C96.8281 9.36458 98.2708 8.82812 100.031 8.82812C101.573 8.82812 102.776 9.20833 103.641 9.96875C104.349 10.5833 104.703 11.2865 104.703 12.0781C104.703 12.901 104.391 13.5573 103.766 14.0469C103.203 14.4844 102.641 14.6458 102.078 14.5312C101.828 14.4792 101.635 14.3542 101.5 14.1562C101.365 13.9479 101.339 13.7135 101.422 13.4531C101.505 13.1927 101.547 12.9219 101.547 12.6406C101.547 12.3594 101.495 12.099 101.391 11.8594C101.286 11.6198 101.146 11.4167 100.969 11.25C100.604 10.9062 100.219 10.7344 99.8125 10.7344C99.4167 10.7344 99.0885 10.7812 98.8281 10.875C98.5677 10.9583 98.3385 11.0833 98.1406 11.25C97.7344 11.625 97.5312 12.0885 97.5312 12.6406C97.5312 13.1823 97.625 13.651 97.8125 14.0469C98 14.4427 98.2292 14.8385 98.5 15.2344C98.7812 15.6302 99.0833 16.0312 99.4062 16.4375C99.7292 16.8438 100.026 17.2708 100.297 17.7188C100.953 18.7708 101.281 19.6979 101.281 20.5C101.281 21.2917 101.115 21.9583 100.781 22.5C100.448 23.0312 100.016 23.4896 99.4844 23.875C98.349 24.7188 97.0781 25.1406 95.6719 25.1406C94.3281 25.1406 93.2656 24.8177 92.4844 24.1719C91.8385 23.6302 91.5156 22.9896 91.5156 22.25ZM116.026 21.4531C116.026 20.0469 116.427 17.8906 117.229 14.9844C114.719 15.0469 112.797 15.1198 111.464 15.2031C111.057 15.9427 110.687 16.6458 110.354 17.3125L109.385 19.2344C108.104 21.7552 106.953 23.4167 105.932 24.2188C105.151 24.8438 104.323 25.1562 103.448 25.1562C102.781 25.1562 102.276 24.9375 101.932 24.5C101.807 24.3229 101.734 24.1562 101.714 24C101.693 23.8333 101.729 23.724 101.823 23.6719C103.021 23.224 103.995 22.5417 104.745 21.625C105.401 20.8021 106.057 19.7969 106.714 18.6094L108.479 15.4531L107.495 15.5938C106.87 15.7083 106.557 15.6094 106.557 15.2969C106.557 14.9844 106.745 14.6875 107.12 14.4062C107.776 13.9167 108.417 13.5938 109.042 13.4375L109.714 13.2812C111.422 10.4583 112.724 8.48438 113.62 7.35938C114.526 6.23438 115.349 5.29688 116.089 4.54688C116.839 3.79688 117.625 3.13542 118.448 2.5625C120.25 1.32292 122.026 0.703125 123.776 0.703125C124.307 0.703125 124.667 0.8125 124.854 1.03125C125.167 1.375 125.266 1.74479 125.151 2.14062C125.036 2.52604 124.849 3.08333 124.589 3.8125C122.922 8.35417 121.906 11.1667 121.542 12.25C121.708 12.2396 121.859 12.2344 121.995 12.2344H122.339C123.505 12.2344 124.13 12.349 124.214 12.5781C124.234 12.651 124.245 12.7865 124.245 12.9844C124.245 13.1719 124.182 13.3906 124.057 13.6406C123.943 13.8906 123.75 14.1042 123.479 14.2812C122.927 14.6562 122 14.875 120.698 14.9375C119.99 17.3854 119.583 19.0781 119.479 20.0156C119.385 20.9531 119.417 21.5885 119.573 21.9219C119.74 22.2448 119.969 22.4062 120.26 22.4062C120.562 22.4062 120.807 22.3802 120.995 22.3281C121.182 22.2656 121.349 22.1979 121.495 22.125L121.901 21.9375C122.005 21.875 122.109 21.8438 122.214 21.8438C122.328 21.8438 122.422 21.9167 122.495 22.0625C122.568 22.1979 122.604 22.3802 122.604 22.6094C122.604 22.8385 122.505 23.1146 122.307 23.4375C122.12 23.75 121.87 24.0312 121.557 24.2812C120.828 24.8646 120.005 25.1562 119.089 25.1562C117.682 25.1562 116.745 24.5312 116.276 23.2812C116.109 22.8438 116.026 22.4531 116.026 22.1094V21.4531ZM112.901 12.7344C114.755 12.4948 116.474 12.3542 118.057 12.3125C118.349 11.4167 118.661 10.5312 118.995 9.65625L119.964 7.15625C120.297 6.36458 120.625 5.61458 120.948 4.90625L121.854 2.98438C119.687 3.54688 117.547 5.41667 115.432 8.59375C114.984 9.26042 114.547 9.94792 114.12 10.6562L112.901 12.7344ZM127.677 23.5156C127.656 23.6719 127.427 24.4948 126.99 25.9844C126.563 27.474 126.203 28.6562 125.911 29.5312C125.255 31.4896 124.714 32.7083 124.286 33.1875C123.943 33.5625 123.526 33.75 123.036 33.75C122.443 33.75 121.99 33.4583 121.677 32.875C121.583 32.7083 121.536 32.5208 121.536 32.3125C121.536 32.1146 121.693 31.6771 122.005 31C122.828 29.2812 123.927 25.8958 125.302 20.8438C125.854 18.8438 126.219 17.4844 126.396 16.7656L126.896 14.8125C127.219 13.5208 127.406 12.6458 127.458 12.1875C127.521 11.7188 127.495 11.3906 127.38 11.2031C127.266 11.0052 127.135 10.8594 126.99 10.7656C126.844 10.6615 126.708 10.5729 126.583 10.5C126.458 10.4271 126.406 10.2969 126.427 10.1094C126.448 9.91146 126.531 9.73438 126.677 9.57812C126.833 9.41146 127.026 9.27083 127.255 9.15625C127.724 8.9375 128.193 8.82812 128.661 8.82812C129.141 8.82812 129.516 8.88542 129.786 9C130.057 9.11458 130.281 9.27083 130.458 9.46875C130.833 9.875 131 10.2708 130.958 10.6562C130.854 11.4583 130.74 12.1458 130.615 12.7188C132.438 10.125 134.328 8.82812 136.286 8.82812C138.068 8.82812 139.26 9.75 139.865 11.5938C140.073 12.2396 140.177 13.026 140.177 13.9531C140.177 14.8802 140.036 15.8125 139.755 16.75C139.474 17.6771 139.094 18.5573 138.615 19.3906C138.135 20.224 137.578 20.9948 136.943 21.7031C136.307 22.401 135.635 23.0104 134.927 23.5312C133.427 24.6146 132.01 25.1562 130.677 25.1562C129.344 25.1562 128.344 24.6094 127.677 23.5156ZM130.083 16.8594C129.708 17.5885 129.401 18.3177 129.161 19.0469C128.932 19.776 128.818 20.4427 128.818 21.0469C128.818 21.651 128.948 22.151 129.208 22.5469C129.469 22.9323 129.854 23.125 130.365 23.125C130.875 23.125 131.38 22.9896 131.88 22.7188C132.391 22.4375 132.88 22.0625 133.349 21.5938C133.828 21.125 134.271 20.5781 134.677 19.9531C135.094 19.3177 135.453 18.6458 135.755 17.9375C136.411 16.3958 136.74 14.9323 136.74 13.5469C136.74 12.7969 136.641 12.2135 136.443 11.7969C136.245 11.3802 135.938 11.1719 135.521 11.1719C135.115 11.1719 134.688 11.3333 134.24 11.6562C133.792 11.9688 133.323 12.3906 132.833 12.9219C132.344 13.4427 131.859 14.0469 131.38 14.7344C130.901 15.4115 130.469 16.1198 130.083 16.8594ZM144.969 23.5156C144.948 23.6719 144.719 24.4948 144.281 25.9844C143.854 27.474 143.495 28.6562 143.203 29.5312C142.547 31.4896 142.005 32.7083 141.578 33.1875C141.234 33.5625 140.818 33.75 140.328 33.75C139.734 33.75 139.281 33.4583 138.969 32.875C138.875 32.7083 138.828 32.5208 138.828 32.3125C138.828 32.1146 138.984 31.6771 139.297 31C140.12 29.2812 141.219 25.8958 142.594 20.8438C143.146 18.8438 143.51 17.4844 143.688 16.7656L144.188 14.8125C144.51 13.5208 144.698 12.6458 144.75 12.1875C144.812 11.7188 144.786 11.3906 144.672 11.2031C144.557 11.0052 144.427 10.8594 144.281 10.7656C144.135 10.6615 144 10.5729 143.875 10.5C143.75 10.4271 143.698 10.2969 143.719 10.1094C143.74 9.91146 143.823 9.73438 143.969 9.57812C144.125 9.41146 144.318 9.27083 144.547 9.15625C145.016 8.9375 145.484 8.82812 145.953 8.82812C146.432 8.82812 146.807 8.88542 147.078 9C147.349 9.11458 147.573 9.27083 147.75 9.46875C148.125 9.875 148.292 10.2708 148.25 10.6562C148.146 11.4583 148.031 12.1458 147.906 12.7188C149.729 10.125 151.62 8.82812 153.578 8.82812C155.359 8.82812 156.552 9.75 157.156 11.5938C157.365 12.2396 157.469 13.026 157.469 13.9531C157.469 14.8802 157.328 15.8125 157.047 16.75C156.766 17.6771 156.385 18.5573 155.906 19.3906C155.427 20.224 154.87 20.9948 154.234 21.7031C153.599 22.401 152.927 23.0104 152.219 23.5312C150.719 24.6146 149.302 25.1562 147.969 25.1562C146.635 25.1562 145.635 24.6094 144.969 23.5156ZM147.375 16.8594C147 17.5885 146.693 18.3177 146.453 19.0469C146.224 19.776 146.109 20.4427 146.109 21.0469C146.109 21.651 146.24 22.151 146.5 22.5469C146.76 22.9323 147.146 23.125 147.656 23.125C148.167 23.125 148.672 22.9896 149.172 22.7188C149.682 22.4375 150.172 22.0625 150.641 21.5938C151.12 21.125 151.562 20.5781 151.969 19.9531C152.385 19.3177 152.745 18.6458 153.047 17.9375C153.703 16.3958 154.031 14.9323 154.031 13.5469C154.031 12.7969 153.932 12.2135 153.734 11.7969C153.536 11.3802 153.229 11.1719 152.812 11.1719C152.406 11.1719 151.979 11.3333 151.531 11.6562C151.083 11.9688 150.615 12.3906 150.125 12.9219C149.635 13.4427 149.151 14.0469 148.672 14.7344C148.193 15.4115 147.76 16.1198 147.375 16.8594Z" fill="#F59E2F"/>
</svg>